<svg width="120" height="24" viewBox="0 0 120 24" fill="none" xmlns="http://www.w3.org/2000/svg">
<g clip-path="url(#clip0_5_137)">
<path d="M12.0001 17.5196L16.1501 20.0296C16.9101 20.4896 17.8401 19.8096 17.6401 18.9496L16.5401 14.2296L20.2101 11.0496C20.8801 10.4696 20.5201 9.36959 19.6401 9.29959L14.8101 8.88959L12.9201 4.42959C12.5801 3.61959 11.4201 3.61959 11.0801 4.42959L9.19007 8.87959L4.36007 9.28959C3.48007 9.35959 3.12007 10.4596 3.79007 11.0396L7.46007 14.2196L6.36007 18.9396C6.16007 19.7996 7.09007 20.4796 7.85007 20.0196L12.0001 17.5196V17.5196Z" fill="#FFBB00"/>
<path d="M84.0001 17.5196L88.1501 20.0296C88.9101 20.4896 89.8401 19.8096 89.6401 18.9496L88.5401 14.2296L92.2101 11.0496C92.8801 10.4696 92.5201 9.36959 91.6401 9.29959L86.8101 8.88959L84.9201 4.42959C84.5801 3.61959 83.4201 3.61959 83.0801 4.42959L81.1901 8.87959L76.3601 9.28959C75.4801 9.35959 75.1201 10.4596 75.7901 11.0396L79.4601 14.2196L78.3601 18.9396C78.1601 19.7996 79.0901 20.4796 79.8501 20.0196L84.0001 17.5196V17.5196Z" fill="#FFBB00"/>
<path d="M60.0001 17.5196L64.1501 20.0296C64.9101 20.4896 65.8401 19.8096 65.6401 18.9496L64.5401 14.2296L68.2101 11.0496C68.8801 10.4696 68.5201 9.36959 67.6401 9.29959L62.8101 8.88959L60.9201 4.42959C60.5801 3.61959 59.4201 3.61959 59.0801 4.42959L57.1901 8.87959L52.3601 9.28959C51.4801 9.35959 51.1201 10.4596 51.7901 11.0396L55.4601 14.2196L54.3601 18.9396C54.1601 19.7996 55.0901 20.4796 55.8501 20.0196L60.0001 17.5196V17.5196Z" fill="#FFBB00"/>
<path d="M36.0001 17.5196L40.1501 20.0296C40.9101 20.4896 41.8401 19.8096 41.6401 18.9496L40.5401 14.2296L44.2101 11.0496C44.8801 10.4696 44.5201 9.36959 43.6401 9.29959L38.8101 8.88959L36.9201 4.42959C36.5801 3.61959 35.4201 3.61959 35.0801 4.42959L33.1901 8.87959L28.3601 9.28959C27.4801 9.35959 27.1201 10.4596 27.7901 11.0396L31.4601 14.2196L30.3601 18.9396C30.1601 19.7996 31.0901 20.4796 31.8501 20.0196L36.0001 17.5196V17.5196Z" fill="#FFBB00"/>
<path d="M108 17.5196L112.15 20.0296C112.91 20.4896 113.84 19.8096 113.64 18.9496L112.54 14.2296L116.21 11.0496C116.88 10.4696 116.52 9.36959 115.64 9.29959L110.81 8.88959L108.92 4.42959C108.58 3.61959 107.42 3.61959 107.08 4.42959L105.19 8.87959L100.36 9.28959C99.4801 9.35959 99.1201 10.4596 99.7901 11.0396L103.46 14.2196L102.36 18.9396C102.16 19.7996 103.09 20.4796 103.85 20.0196L108 17.5196V17.5196Z" fill="#FFBB00"/>
</g>
<defs>
<clipPath id="clip0_5_137">
<rect width="120" height="24" fill="white"/>
</clipPath>
</defs>
</svg>
